<svg width="196" height="196" viewBox="0 0 196 196" fill="none" xmlns="http://www.w3.org/2000/svg">
<g clip-path="url(#clip0_1_4)">
<path fill-rule="evenodd" clip-rule="evenodd" d="M152.734 56.795H196V87.9862H152.734C153.704 82.9338 154.213 77.7251 154.213 72.3886C154.213 67.0525 153.716 61.9298 152.73 56.791L152.734 56.795ZM143.911 112.285V195.996H110.216V145.234C124.4 137.781 136.139 126.293 143.911 112.285Z" fill="white"/>
<path fill-rule="evenodd" clip-rule="evenodd" d="M72.2122 0C98.9408 0 122.272 14.5559 134.759 36.19L107.291 52.0883C100.288 39.9535 87.2008 31.7924 72.2122 31.7924C49.8419 31.7924 31.711 49.9675 31.711 72.3922C31.711 94.8172 49.8419 112.992 72.2122 112.992C89.066 112.992 103.517 102.669 109.617 87.9857H58.1394V56.7946H142.741C143.841 61.8184 144.424 67.0351 144.424 72.3922C144.424 112.371 112.093 144.781 72.2122 144.781C32.3312 144.781 0 112.366 0 72.3881C0 32.41 32.3312 0 72.2122 0Z" fill="#0DE6BE"/>
</g>
<defs>
<clipPath id="clip0_1_4">
<rect width="196" height="196" fill="white"/>
</clipPath>
</defs>
</svg>
